<svg width="349" height="330" viewBox="0 0 349 330" fill="none" xmlns="http://www.w3.org/2000/svg">
<g filter="url(#filter0_d_1_4)">
<rect x="4" width="341" height="322" fill="white"/>
<mask id="mask0_1_4" style="mask-type:luminance" maskUnits="userSpaceOnUse" x="4" y="58" width="341" height="206">
<path d="M345 58H4V264H345V58Z" fill="white"/>
</mask>
<g mask="url(#mask0_1_4)">
<path d="M76.2475 195.639L61.3407 232.005H65.8996L69.2557 223.872H84.6379L87.8821 232.005H94.6038L80.4426 195.639H76.2475ZM71.2879 218.997L77.0773 204.991L82.6616 218.997H71.2973H71.2879Z" fill="#263772"/>
<path d="M103.675 195.639H97.4565V232.005H127.168V227.085H103.675V195.639Z" fill="#263772"/>
<path d="M158.174 209.002C150.567 209.002 149.542 206.864 149.542 204.781C149.542 202.698 150.567 200.559 158.174 200.559C165.241 200.559 165.241 203.628 165.241 204.781V206.321H171.468V204.781C171.468 201.368 169.744 195.639 158.174 195.639C153.886 195.639 150.502 196.216 148.106 197.357C144.153 199.241 143.314 202.432 143.314 204.781C143.314 207.13 144.144 210.321 148.106 212.205C150.502 213.346 153.886 213.922 158.174 213.922C160.309 213.922 166.807 213.922 166.807 220.515C166.807 224.681 163.656 227.063 158.174 227.063C155.415 227.063 153.271 226.542 151.816 225.512C150.287 224.437 149.542 222.808 149.542 220.515V218.975H143.314V220.515C143.314 227.806 148.731 231.994 158.174 231.994C162.63 231.994 166.378 230.897 169.007 228.814C171.608 226.764 173.034 223.817 173.034 220.515C173.034 213.191 167.618 208.991 158.174 208.991" fill="#263772"/>
<path d="M177.845 232.005H207.566V227.085H184.073V216.26H201.757V211.385H184.073V200.57H207.566V195.639H177.845V232.005Z" fill="#263772"/>
<path d="M257.33 195.639L242.571 231.65L230.853 216.936H232.215C237.146 216.936 241.155 212.171 241.155 206.321C241.155 200.471 237.146 195.651 232.215 195.651H211.434V232.016H217.662V216.936H222.332L234.293 232.016H246.982L250.347 223.883H265.729L268.973 232.016H275.695L261.534 195.651H257.339L257.33 195.639ZM217.652 212.005V200.57H230.127C232.773 200.57 234.918 203.141 234.918 206.31C234.918 209.479 232.773 212.005 230.127 212.005H217.652ZM252.369 218.997L258.15 204.991L263.733 218.997H252.369Z" fill="#263772"/>
<path d="M295.776 220.526C295.776 224.238 295.291 227.074 289.148 227.074C284.132 227.074 282.519 225.479 282.519 220.526V218.986H276.291V220.526C276.291 224.526 277.484 227.529 279.834 229.434C281.95 231.163 284.999 231.994 289.157 231.994C299.785 231.994 302.013 225.756 302.013 220.515V195.628H295.785V220.515L295.776 220.526Z" fill="#263772"/>
<path d="M213.113 142.122H206.885V178.487H213.113V142.122Z" fill="#263772"/>
<path d="M103.656 142.122H97.4283V178.487H103.656V142.122Z" fill="#263772"/>
<path d="M149.467 178.487C149.579 178.487 149.7 178.487 149.812 178.476L158.491 178.487H188.855C189.797 178.487 190.71 178.31 191.568 177.989C195.176 176.615 197.795 172.582 197.795 167.828V142.133H191.568V167.828C191.568 170.997 189.424 173.568 186.776 173.568H169.445C170.34 171.906 170.853 169.944 170.853 167.828V153.933H164.625V167.828C164.625 170.997 162.472 173.568 159.834 173.568H156.99C157.885 171.906 158.398 169.944 158.398 167.828V157.867H152.17V167.828C152.17 170.997 150.017 173.568 147.379 173.568H144.535C145.43 171.906 145.943 169.944 145.943 167.828V161.811H139.716V167.828C139.716 170.997 137.562 173.568 134.924 173.568H118.973V153.933H112.745V187.207V187.23C112.745 190.044 112.055 194.52 107.823 195.651V200.714C109.669 200.493 111.31 199.972 112.745 199.185C112.876 199.108 113.006 199.041 113.137 198.953C113.211 198.908 113.286 198.864 113.361 198.809C113.407 198.775 113.463 198.742 113.51 198.709C113.547 198.687 113.584 198.665 113.612 198.642C113.649 198.62 113.687 198.598 113.715 198.565C113.752 198.543 113.789 198.52 113.817 198.498C113.855 198.476 113.892 198.454 113.92 198.421C113.957 198.398 113.994 198.365 114.032 198.343C114.33 198.122 114.61 197.9 114.88 197.656C114.899 197.645 114.917 197.623 114.927 197.612C115.029 197.523 115.123 197.435 115.216 197.346L115.225 197.335C115.234 197.324 115.253 197.313 115.262 197.302C115.346 197.224 115.421 197.135 115.505 197.058C115.533 197.036 115.551 197.002 115.579 196.98C115.654 196.903 115.719 196.825 115.784 196.748C115.859 196.67 115.924 196.581 115.999 196.504C116.073 196.415 116.139 196.326 116.213 196.238C116.26 196.171 116.306 196.116 116.353 196.05C116.4 195.983 116.446 195.917 116.502 195.85C116.568 195.762 116.624 195.684 116.679 195.595C116.745 195.507 116.801 195.407 116.866 195.318C116.894 195.274 116.922 195.23 116.95 195.185C117.006 195.086 117.062 194.986 117.127 194.897C117.183 194.808 117.229 194.709 117.285 194.609C117.313 194.554 117.341 194.509 117.369 194.454C117.425 194.354 117.481 194.243 117.528 194.144C117.528 194.122 117.546 194.099 117.556 194.088C117.556 194.066 117.574 194.044 117.584 194.033C117.584 194.022 117.602 194 117.602 193.989C117.602 193.989 117.602 193.978 117.602 193.966C117.789 193.568 117.957 193.147 118.106 192.714C118.106 192.692 118.124 192.681 118.124 192.659C118.124 192.659 118.162 192.559 118.171 192.515C118.208 192.415 118.236 192.316 118.264 192.216C118.264 192.205 118.264 192.194 118.274 192.171C118.292 192.116 118.311 192.049 118.329 191.994C118.357 191.883 118.395 191.761 118.423 191.64C118.441 191.562 118.46 191.484 118.479 191.418C118.488 191.374 118.497 191.329 118.507 191.296C118.525 191.23 118.535 191.163 118.553 191.097C118.553 191.086 118.553 191.074 118.553 191.063C118.581 190.953 118.6 190.853 118.619 190.742C118.646 190.609 118.674 190.476 118.693 190.332C118.693 190.332 118.693 190.332 118.693 190.321C118.702 190.266 118.712 190.21 118.721 190.155C118.74 190.044 118.758 189.922 118.777 189.8C118.796 189.667 118.805 189.545 118.824 189.413C118.824 189.346 118.842 189.279 118.842 189.213C118.861 189.08 118.87 188.947 118.879 188.814C118.889 188.67 118.908 188.515 118.908 188.36C118.908 188.315 118.908 188.282 118.908 188.238C118.908 188.094 118.926 187.939 118.926 187.795C118.926 187.617 118.935 187.451 118.935 187.274V187.252V178.532H136.965C137.264 178.532 137.553 178.509 137.842 178.476V178.532H149.42L149.467 178.487Z" fill="#263772"/>
<path d="M89.5322 164.592C89.5414 164.67 89.5414 164.748 89.5414 164.814C89.5414 165.424 89.5135 166.011 89.4576 166.576C89.4296 166.986 89.3737 167.396 89.3084 167.795V167.817C89.2711 168.05 89.2244 168.271 89.1778 168.493C89.1778 168.504 89.1778 168.515 89.1686 168.526C89.1686 168.559 89.1592 168.593 89.1499 168.637C89.0007 169.291 88.8236 169.933 88.5999 170.532C88.5905 170.554 88.5905 170.565 88.5812 170.576C88.5347 170.72 88.4693 170.864 88.4135 171.008C88.4041 171.041 88.3948 171.052 88.3854 171.075C88.2829 171.318 88.1803 171.551 88.0685 171.773C88.0499 171.817 88.0312 171.85 88.0126 171.895C88.0126 171.906 88.0032 171.917 87.9939 171.928C87.9847 171.95 87.966 171.972 87.9566 172.005C87.9473 172.005 87.9473 172.016 87.9379 172.027C87.91 172.083 87.882 172.127 87.854 172.183C87.6863 172.493 87.5091 172.792 87.3134 173.091C87.2948 173.124 87.2667 173.158 87.248 173.191C87.248 173.191 87.2449 173.195 87.2388 173.202C87.2388 173.202 87.1642 173.313 87.1268 173.368C87.1176 173.39 87.1082 173.401 87.0989 173.424C87.015 173.523 86.9404 173.634 86.8565 173.745C86.8006 173.811 86.7447 173.889 86.6794 173.955C86.5395 174.133 86.3998 174.31 86.2413 174.476C86.2413 174.487 86.2319 174.498 86.2226 174.498C85.9895 174.753 85.7565 174.997 85.5048 175.23C85.2438 175.462 84.9641 175.684 84.6843 175.894C84.647 175.917 84.6191 175.95 84.5818 175.972C84.5818 175.983 84.5631 175.983 84.5539 175.994C84.47 176.061 84.3861 176.116 84.2928 176.183C84.2555 176.205 84.2182 176.227 84.181 176.26C84.1343 176.293 84.0783 176.327 84.0225 176.36H84.0131C83.9292 176.415 83.8547 176.471 83.7801 176.515C83.7241 176.548 83.6682 176.581 83.6123 176.615C83.5843 176.637 83.5564 176.648 83.5191 176.67C83.4817 176.692 83.4444 176.714 83.4165 176.726C83.3792 176.748 83.3513 176.77 83.3232 176.781C83.0808 176.914 82.8386 177.036 82.5962 177.158C82.5215 177.191 82.4563 177.224 82.3817 177.246C82.3817 177.257 82.3724 177.257 82.3724 177.257C82.2886 177.29 82.2139 177.324 82.1393 177.357C82.102 177.368 82.0648 177.39 82.0181 177.401C81.9994 177.412 81.9808 177.424 81.9529 177.435C81.813 177.49 81.6545 177.545 81.5054 177.601C81.4028 177.645 81.3003 177.678 81.1977 177.712C81.0579 177.756 80.9274 177.8 80.7876 177.845C80.7689 177.856 80.7503 177.856 80.7316 177.856C80.685 177.878 80.6477 177.889 80.6012 177.9C80.4705 177.933 80.3401 177.966 80.2002 178.011C80.1816 178.011 80.1629 178.011 80.1443 178.011C80.1069 178.022 80.0696 178.022 80.0417 178.033C79.9671 178.055 79.8926 178.066 79.8274 178.077C79.7341 178.099 79.6408 178.122 79.5477 178.144C79.5104 178.155 79.473 178.155 79.4357 178.166C79.3145 178.188 79.1933 178.21 79.0721 178.232L78.9044 178.266H78.8951C78.8112 178.277 78.7179 178.288 78.6433 178.299L78.4195 178.332C78.3637 178.343 78.3078 178.343 78.2518 178.354H78.2425C78.084 178.376 77.9162 178.388 77.7483 178.399C77.6644 178.41 77.5806 178.421 77.5059 178.421C77.4128 178.432 77.3195 178.432 77.2264 178.443C77.1238 178.443 77.0213 178.454 76.928 178.454C76.6856 178.465 76.4432 178.465 76.2008 178.465H61.3406C58.0964 178.476 54.2368 179.994 54.2368 187.207C54.2368 190.454 55.1504 195.906 61.3406 195.906L61.8068 195.894C63.9788 195.85 65.713 195.507 67.0833 194.975C68.0343 194.609 68.808 194.144 69.4419 193.623L66.6266 200.482C65.2374 200.681 63.7738 200.792 62.2263 200.814C61.928 200.825 61.6389 200.825 61.3406 200.825C53.1181 200.825 48 195.606 48 187.207C48 182.82 49.3984 179.219 52.0367 176.814C54.3767 174.676 57.5929 173.545 61.3406 173.545H76.2008C79.4451 173.545 83.314 172.027 83.314 164.803C83.314 164.548 83.3046 164.282 83.2861 163.994C83.0437 161.102 81.0019 158.842 78.5221 158.842H63.1399V153.911H80.6104C85.2997 153.911 89.1592 158.255 89.5135 163.75C89.5228 163.983 89.5322 164.194 89.5322 164.415C89.5414 164.471 89.5414 164.526 89.5414 164.581H89.5322V164.592Z" fill="#263772"/>
<path d="M66.0672 187.207C66.0672 185.357 64.9485 184.205 63.1399 184.205C62.3196 184.205 61.611 184.448 61.0983 184.925C60.5203 185.457 60.2126 186.243 60.2126 187.207C60.2126 189.058 61.3314 190.199 63.1399 190.199C64.9485 190.199 66.0672 189.047 66.0672 187.207Z" fill="#263772"/>
<path d="M164.626 183.086V187.307L151.294 190.1C149.076 190.565 146.941 189.235 145.953 186.997L164.626 183.075V183.086Z" fill="#263772"/>
<path d="M302.003 178.487L289.595 163.739C287.73 161.523 286.126 159.13 284.765 156.593C277.503 143.008 277.503 125.501 284.765 111.917C286.117 109.379 287.73 106.975 289.595 104.759L302.003 119.507C290.164 133.579 288.55 155.208 297.174 171.34C298.535 173.878 300.139 176.282 302.003 178.498" fill="#78C2AA"/>
<path d="M289.595 163.739L277.186 178.487C265.347 164.415 247.149 162.498 233.584 172.748C231.45 174.365 229.427 176.271 227.561 178.487L239.97 163.739C241.836 161.523 243.858 159.606 245.992 158C257.423 149.368 272.152 149.368 283.582 158C285.717 159.606 287.74 161.523 289.604 163.739" fill="#78C2AA"/>
<path d="M239.97 163.739L227.561 148.991C239.412 134.908 241.014 113.28 232.381 97.1468C231.03 94.6094 229.418 92.2161 227.561 90L239.97 104.748C241.826 106.964 243.438 109.357 244.79 111.884C252.062 125.479 252.062 142.975 244.79 156.57C243.429 159.108 241.826 161.512 239.961 163.728" fill="#78C2AA"/>
<path d="M302.003 90.0111L289.595 104.759C287.73 106.975 285.708 108.892 283.572 110.499C272.142 119.13 257.423 119.13 245.992 110.499C243.858 108.892 241.826 106.975 239.961 104.748L252.379 90.0111C264.218 104.083 282.417 106 295.981 95.7507C298.115 94.1441 300.139 92.2272 302.003 90.0111Z" fill="#78C2AA"/>
</g>
</g>
<defs>
<filter id="filter0_d_1_4" x="0" y="0" width="349" height="330" filterUnits="userSpaceOnUse" color-interpolation-filters="sRGB">
<feFlood flood-opacity="0" result="BackgroundImageFix"/>
<feColorMatrix in="SourceAlpha" type="matrix" values="0 0 0 0 0 0 0 0 0 0 0 0 0 0 0 0 0 0 127 0" result="hardAlpha"/>
<feOffset dy="4"/>
<feGaussianBlur stdDeviation="2"/>
<feComposite in2="hardAlpha" operator="out"/>
<feColorMatrix type="matrix" values="0 0 0 0 0 0 0 0 0 0 0 0 0 0 0 0 0 0 0.25 0"/>
<feBlend mode="normal" in2="BackgroundImageFix" result="effect1_dropShadow_1_4"/>
<feBlend mode="normal" in="SourceGraphic" in2="effect1_dropShadow_1_4" result="shape"/>
</filter>
</defs>
</svg>
